#tb 0: 1/15
#tb 1: 1/44100
0,          0,          0,        1,   161280, 0x7041748d
1,          0,          0,     2708,    10832, 0xe1a811fa
1,       2708,       2708,     2708,    10832, 0xb47841f9
0,          1,          1,        1,   161280, 0x3cc4dfb5
1,       5416,       5416,     2708,    10832, 0x839eedf1
0,          2,          2,        1,   161280, 0xca3af22d
1,       8124,       8124,     2708,    10832, 0xb48b1f60
0,          3,          3,        1,   161280, 0x23ad1d85
1,      10832,      10832,     2708,    10832, 0x743936c0
0,          4,          4,        1,   161280, 0x9c9cf364
1,      13540,      13540,     2708,    10832, 0xe1f039fb
0,          5,          5,        1,   161280, 0x1551d6a8
1,      16248,      16248,     2708,    10832, 0xef00751a
0,          6,          6,        1,   161280, 0xc39f6b95
1,      18956,      18956,     2708,    10832, 0x401ed099
0,          7,          7,        1,   161280, 0x3b036dcc
1,      21665,      21665,     2708,    10832, 0x432a53bd
0,          8,          8,        1,   161280, 0xa6fac1db
1,      24373,      24373,     2708,    10832, 0xc4276bfd
0,          9,          9,        1,   161280, 0x67656b62
1,      27081,      27081,     2708,    10832, 0x51f0fa8c
0,         10,         10,        1,   161280, 0xb41f47d1
1,      29789,      29789,     2708,    10832, 0xcebae622
0,         11,         11,        1,   161280, 0xc207249e
1,      32497,      32497,     2708,    10832, 0xe9f6dc1f
1,      35205,      35205,     2708,    10832, 0xda087fee
0,         12,         12,        1,   161280, 0xbee8f843
1,      37913,      37913,     2708,    10832, 0x67a621bb
0,         13,         13,        1,   161280, 0x092acf46
1,      40621,      40621,     2708,    10832, 0xd7be207f
0,         14,         14,        1,   161280, 0x8d9e2680
1,      43329,      43329,     2708,    10832, 0x19d32507
0,         15,         15,        1,   161280, 0x8becc20c
1,      46037,      46037,     2708,    10832, 0xe1a3fbfa
0,         16,         16,        1,   161280, 0x655e444e
1,      48745,      48745,     2708,    10832, 0xd10df779
0,         17,         17,        1,   161280, 0x5c112da0
1,      51453,      51453,     2708,    10832, 0x4428e1a7
0,         18,         18,        1,   161280, 0x232fa9eb
1,      54161,      54161,     2708,    10832, 0x7ea9b33d
0,         19,         19,        1,   161280, 0x9721745d
1,      56869,      56869,     2708,    10832, 0x6852a5a5
0,         20,         20,        1,   161280, 0x92f1d880
1,      59578,      59578,     2708,    10832, 0xfeb78863
0,         21,         21,        1,   161280, 0x16233978
1,      62286,      62286,     2708,    10832, 0xf157f928
0,         22,         22,        1,   161280, 0x19a27e69
1,      64994,      64994,     2708,    10832, 0x86414b3e
0,         23,         23,        1,   161280, 0x7b6ad73a
1,      67702,      67702,     2708,    10832, 0x2e28cdf6
1,      70410,      70410,     2708,    10832, 0x00212e44
0,         24,         24,        1,   161280, 0xa7a674aa
1,      73118,      73118,     2708,    10832, 0x2d7f9378
0,         25,         25,        1,   161280, 0x4e434abb
1,      75826,      75826,     2708,    10832, 0x84cb25d7
0,         26,         26,        1,   161280, 0xb96eea14
1,      78534,      78534,     2708,    10832, 0x3aca41fa
0,         27,         27,        1,   161280, 0x1350188c
1,      81242,      81242,     2708,    10832, 0x27ad34b9
0,         28,         28,        1,   161280, 0x79c6f305
1,      83950,      83950,     2708,    10832, 0xe665144a
0,         29,         29,        1,   161280, 0xa9c7782d
1,      86658,      86658,     2708,    10832, 0xf9546626
0,         30,         30,        1,   161280, 0x40a4f456
1,      89366,      89366,     2708,    10832, 0xe71c4f22
0,         31,         31,        1,   161280, 0xaf291ed6
1,      92074,      92074,     2708,    10832, 0x5e61869c
0,         32,         32,        1,   161280, 0xab29b4e1
1,      94782,      94782,     2708,    10832, 0x571d2c10
0,         33,         33,        1,   161280, 0xbfcd2712
1,      97490,      97490,     2708,    10832, 0xf0e08cd5
0,         34,         34,        1,   161280, 0xff22a0d7
1,     100199,     100199,     2708,    10832, 0x66650e49
0,         35,         35,        1,   161280, 0xb0ae88a9
1,     102907,     102907,     2708,    10832, 0x4024deaf
1,     105615,     105615,     2708,    10832, 0xda7bdb14
0,         36,         36,        1,   161280, 0x811d1259
1,     108323,     108323,     2708,    10832, 0xc27a342f
0,         37,         37,        1,   161280, 0x593c39a1
1,     111031,     111031,     2708,    10832, 0x574fe679
0,         38,         38,        1,   161280, 0x5a5a97f8
1,     113739,     113739,     2708,    10832, 0x37db464e
0,         39,         39,        1,   161280, 0xa5639ecf
1,     116447,     116447,     2708,    10832, 0xb1fa2a83
0,         40,         40,        1,   161280, 0x543920c6
1,     119155,     119155,     2708,    10832, 0x3d98d9b7
0,         41,         41,        1,   161280, 0xb41689ee
1,     121863,     121863,     2708,    10832, 0xb7c908e2
0,         42,         42,        1,   161280, 0xc0ad83de
1,     124571,     124571,     2708,    10832, 0x9f7e44d8
0,         43,         43,        1,   161280, 0x9e9e7456
1,     127279,     127279,     2708,    10832, 0xae9b8774
0,         44,         44,        1,   161280, 0x777ccbfe
1,     129987,     129987,     2708,    10832, 0x36916e3f
0,         45,         45,        1,   161280, 0x9c2df916
1,     132695,     132695,     2708,    10832, 0xd785f5ef
0,         46,         46,        1,   161280, 0xe0c13b35
1,     135403,     135403,     2708,    10832, 0x2a3a5673
1,     138112,     138112,     2708,    10832, 0x7320e379
0,         47,         47,        1,   161280, 0x39bfa5a5
1,     140820,     140820,     2708,    10832, 0xec787be5
0,         48,         48,        1,   161280, 0x35dfb264
1,     143528,     143528,     2708,    10832, 0xd0d13aa0
0,         49,         49,        1,   161280, 0x43018613
1,     146236,     146236,     2708,    10832, 0x34dfcb17
0,         50,         50,        1,   161280, 0x43584b8a
1,     148944,     148944,     2708,    10832, 0x1a9c29f1
0,         51,         51,        1,   161280, 0xa5cd230a
1,     151652,     151652,     2708,    10832, 0x3e73dcc1
0,         52,         52,        1,   161280, 0x6fe2cfb3
1,     154360,     154360,     2708,    10832, 0x7855b053
0,         53,         53,        1,   161280, 0x88a7c0db
1,     157068,     157068,     2708,    10832, 0x5588df8f
0,         54,         54,        1,   161280, 0x476f1cd2
1,     159776,     159776,     2708,    10832, 0x6f621299
0,         55,         55,        1,   161280, 0x96401d49
1,     162484,     162484,     2708,    10832, 0xce7f39c2
0,         56,         56,        1,   161280, 0x7d932919
1,     165192,     165192,     2708,    10832, 0xd88e6552
0,         57,         57,        1,   161280, 0x06465481
1,     167900,     167900,     2708,    10832, 0xddc63597
0,         58,         58,        1,   161280, 0x39631520
1,     170608,     170608,     2708,    10832, 0xe3071865
1,     173316,     173316,     2708,    10832, 0x2a44a123
0,         59,         59,        1,   161280, 0xc3fff780
1,     176024,     176024,     2708,    10832, 0x08d85d45
0,         60,         60,        1,   161280, 0xa81faf28
1,     178733,     178733,     2708,    10832, 0x4dc5f83a
0,         61,         61,        1,   161280, 0x7a311f4f
1,     181441,     181441,     2708,    10832, 0x89497812
0,         62,         62,        1,   161280, 0x52f9b931
1,     184149,     184149,     2708,    10832, 0x9ee1db54
0,         63,         63,        1,   161280, 0x938cf016
1,     186857,     186857,     2708,    10832, 0x5277d611
0,         64,         64,        1,   161280, 0xf8f6e19c
1,     189565,     189565,     2708,    10832, 0x570a619c
0,         65,         65,        1,   161280, 0xca90561b
1,     192273,     192273,     2708,    10832, 0xa217d70f
0,         66,         66,        1,   161280, 0x8594d06b
1,     194981,     194981,     2708,    10832, 0x6f0ecbf4
0,         67,         67,        1,   161280, 0xea32bf3b
1,     197689,     197689,     2708,    10832, 0x2704b114
0,         68,         68,        1,   161280, 0x4646111a
1,     200397,     200397,     2708,    10832, 0xf24e679f
0,         69,         69,        1,   161280, 0xee891162
1,     203105,     203105,     2708,    10832, 0x05572099
0,         70,         70,        1,   161280, 0xcfc32082
1,     205813,     205813,     2708,    10832, 0x33942d0c
1,     208521,     208521,     2708,    10832, 0xa77ea674
0,         71,         71,        1,   161280, 0x863c281a
1,     211229,     211229,     2708,    10832, 0xeba663bc
0,         72,         72,        1,   161280, 0x01b591aa
1,     213937,     213937,     2708,    10832, 0x1338524a
0,         73,         73,        1,   161280, 0x211fbc62
1,     216645,     216645,     2708,    10832, 0x6182b0b3
0,         74,         74,        1,   161280, 0xae2bafe2
1,     219354,     219354,     2708,    10832, 0xa410a364
0,         75,         75,        1,   161280, 0xcfe46dca
1,     222062,     222062,     2708,    10832, 0x2f4374b0
0,         76,         76,        1,   161280, 0xcf8fe8a3
1,     224770,     224770,     2708,    10832, 0xf41f3a07
0,         77,         77,        1,   161280, 0x3f8474eb
1,     227478,     227478,     2708,    10832, 0x2b1c50c6
0,         78,         78,        1,   161280, 0x06da345a
1,     230186,     230186,     2708,    10832, 0x3692ac89
0,         79,         79,        1,   161280, 0xbd4d3280
1,     232894,     232894,     2708,    10832, 0x5d6bc87e
0,         80,         80,        1,   161280, 0xb5e70fea
1,     235602,     235602,     2708,    10832, 0x1b1cda0c
0,         81,         81,        1,   161280, 0x0c99c804
1,     238310,     238310,     2708,    10832, 0x11eaa15f
1,     241018,     241018,     2708,    10832, 0x73c7d7ef
0,         82,         82,        1,   161280, 0x19841ed4
1,     243726,     243726,     2708,    10832, 0x65d7e3be
0,         83,         83,        1,   161280, 0xf81dea50
1,     246434,     246434,     2708,    10832, 0xb9c00688
0,         84,         84,        1,   161280, 0x7777d81c
1,     249142,     249142,     2708,    10832, 0x0b98c125
0,         85,         85,        1,   161280, 0x0497cfd8
1,     251850,     251850,     2708,    10832, 0x331ed413
0,         86,         86,        1,   161280, 0x50b6eb64
1,     254558,     254558,     2708,    10832, 0x9b68f485
0,         87,         87,        1,   161280, 0x5071fc07
1,     257267,     257267,     2708,    10832, 0x1b865c55
0,         88,         88,        1,   161280, 0xbb7527fb
1,     259975,     259975,     2708,    10832, 0x68cef565
0,         89,         89,        1,   161280, 0x13054f1f
1,     262683,     262683,     2708,    10832, 0x3a605f15
0,         90,         90,        1,   161280, 0x4b78fb27
1,     265391,     265391,     2708,    10832, 0xd72ff22e
0,         91,         91,        1,   161280, 0xf504968f
1,     268099,     268099,     2708,    10832, 0x1c672b67
0,         92,         92,        1,   161280, 0x555b10b7
1,     270807,     270807,     2708,    10832, 0xfd1a7e7e
0,         93,         93,        1,   161280, 0xcc0dde40
1,     273515,     273515,     2708,    10832, 0x9bf20ead
1,     276223,     276223,     2708,    10832, 0x00000000
0,         94,         94,        1,   161280, 0xcc0dde40
1,     278931,     278931,     2708,    10832, 0x00000000
0,         95,         95,        1,   161280, 0x367f60c8
1,     281639,     281639,     2708,    10832, 0x00000000
0,         96,         96,        1,   161280, 0x367f60c8
1,     284347,     284347,     2708,    10832, 0x00000000
0,         97,         97,        1,   161280, 0x367f60c8
1,     287055,     287055,     2708,    10832, 0x00000000
0,         98,         98,        1,   161280, 0x367f60c8
1,     289763,     289763,     2708,    10832, 0x00000000
0,         99,         99,        1,   161280, 0x367f60c8
1,     292471,     292471,     2708,    10832, 0x00000000
0,        100,        100,        1,   161280, 0x367f60c8
1,     295179,     295179,     2708,    10832, 0x00000000
0,        101,        101,        1,   161280, 0x367f60c8
1,     297888,     297888,     2708,    10832, 0x00000000
0,        102,        102,        1,   161280, 0x367f60c8
1,     300596,     300596,     2708,    10832, 0x00000000
0,        103,        103,        1,   161280, 0x367f60c8
1,     303304,     303304,     2708,    10832, 0x00000000
0,        104,        104,        1,   161280, 0x367f60c8
